<?xml version="1.0" encoding="UTF-8"?>
<svg width="358px" height="409px" viewBox="0 0 358 409" version="1.1" xmlns="http://www.w3.org/2000/svg" xmlns:xlink="http://www.w3.org/1999/xlink">
    <!-- Generator: Sketch 63.1 (92452) - https://sketch.com -->
    <title>ambientia-ball-pattern</title>
    <desc>Created with Sketch.</desc>
    <g id="ambientia-layouts" stroke="none" stroke-width="1" fill="none" fill-rule="evenodd">
        <g id="etusivu-menu-open" transform="translate(-1050.000000, -421.000000)" fill="#FFFFFF">
            <g id="ambientia-ball-pattern-barrising" transform="translate(795.000000, 216.000000)">
                <g id="balls" transform="translate(254.742007, 204.366479)">
                    <path d="M281.093445,153.815643 C295.185244,153.815643 306.609008,142.390021 306.609008,128.29593 C306.609008,114.200939 295.185244,102.775317 281.093445,102.775317 C267.001647,102.775317 255.577883,114.200939 255.577883,128.29593 C255.577883,142.390021 267.001647,153.815643 281.093445,153.815643" id="Fill-71"></path>
                    <path d="M127.997551,153.815643 C142.089349,153.815643 153.513113,142.390021 153.513113,128.29593 C153.513113,114.200939 142.089349,102.775317 127.997551,102.775317 C113.905752,102.775317 102.481988,114.200939 102.481988,128.29593 C102.481988,142.390021 113.905752,153.815643 127.997551,153.815643" id="Fill-79"></path>
                    <path d="M230.06151,153.815643 C244.153309,153.815643 255.577073,142.390021 255.577073,128.29593 C255.577073,114.200939 244.153309,102.775317 230.06151,102.775317 C215.969712,102.775317 204.545948,114.200939 204.545948,128.29593 C204.545948,142.390021 215.969712,153.815643 230.06151,153.815643" id="Fill-81"></path>
                    <path d="M179.029575,306.936349 C193.121374,306.936349 204.545138,295.510728 204.545138,281.416637 C204.545138,267.321645 193.121374,255.896024 179.029575,255.896024 C164.937777,255.896024 153.514013,267.321645 153.514013,281.416637 C153.514013,295.510728 164.937777,306.936349 179.029575,306.936349" id="Fill-93"></path>
                    <path d="M281.093445,306.936349 C295.185244,306.936349 306.609008,295.510728 306.609008,281.416637 C306.609008,267.321645 295.185244,255.896024 281.093445,255.896024 C267.001647,255.896024 255.577883,267.321645 255.577883,281.416637 C255.577883,295.510728 267.001647,306.936349 281.093445,306.936349" id="Fill-95"></path>
                    <path d="M230.06151,306.936349 C244.153309,306.936349 255.577073,295.510728 255.577073,281.416637 C255.577073,267.321645 244.153309,255.896024 230.06151,255.896024 C215.969712,255.896024 204.545948,267.321645 204.545948,281.416637 C204.545948,295.510728 215.969712,306.936349 230.06151,306.936349" id="Fill-105"></path>
                    <path d="M332.12538,306.936349 C346.217179,306.936349 357.640943,295.510728 357.640943,281.416637 C357.640943,267.321645 346.217179,255.896024 332.12538,255.896024 C318.033581,255.896024 306.609818,267.321645 306.609818,281.416637 C306.609818,295.510728 318.033581,306.936349 332.12538,306.936349" id="Fill-107"></path>
                    <path d="M332.12538,51.7350818 C346.217179,51.7350818 357.640943,40.3094601 357.640943,26.2153692 C357.640943,12.120378 346.217179,0.694756305 332.12538,0.694756305 C318.033581,0.694756305 306.609818,12.120378 306.609818,26.2153692 C306.609818,40.3094601 318.033581,51.7350818 332.12538,51.7350818" id="Fill-155"></path>
                    <path d="M281.093445,204.855878 C295.185244,204.855878 306.609008,193.430257 306.609008,179.336166 C306.609008,165.241174 295.185244,153.815553 281.093445,153.815553 C267.001647,153.815553 255.577883,165.241174 255.577883,179.336166 C255.577883,193.430257 267.001647,204.855878 281.093445,204.855878" id="Fill-167"></path>
                    <path d="M127.997551,204.855878 C142.089349,204.855878 153.513113,193.430257 153.513113,179.336166 C153.513113,165.241174 142.089349,153.815553 127.997551,153.815553 C113.905752,153.815553 102.481988,165.241174 102.481988,179.336166 C102.481988,193.430257 113.905752,204.855878 127.997551,204.855878" id="Fill-175"></path>
                    <path d="M230.06151,204.855878 C244.153309,204.855878 255.577073,193.430257 255.577073,179.336166 C255.577073,165.241174 244.153309,153.815553 230.06151,153.815553 C215.969712,153.815553 204.545948,165.241174 204.545948,179.336166 C204.545948,193.430257 215.969712,204.855878 230.06151,204.855878" id="Fill-177"></path>
                    <path d="M332.12538,204.855878 C346.217179,204.855878 357.640943,193.430257 357.640943,179.336166 C357.640943,165.241174 346.217179,153.815553 332.12538,153.815553 C318.033581,153.815553 306.609818,165.241174 306.609818,179.336166 C306.609818,193.430257 318.033581,204.855878 332.12538,204.855878" id="Fill-179"></path>
                    <path d="M76.9657056,357.976585 C91.0575044,357.976585 102.481268,346.550963 102.481268,332.456872 C102.481268,318.361881 91.0575044,306.936259 76.9657056,306.936259 C62.8739068,306.936259 51.4501432,318.361881 51.4501432,332.456872 C51.4501432,346.550963 62.8739068,357.976585 76.9657056,357.976585" id="Fill-187"></path>
                    <path d="M179.029575,357.976585 C193.121374,357.976585 204.545138,346.550963 204.545138,332.456872 C204.545138,318.361881 193.121374,306.936259 179.029575,306.936259 C164.937777,306.936259 153.514013,318.361881 153.514013,332.456872 C153.514013,346.550963 164.937777,357.976585 179.029575,357.976585" id="Fill-189"></path>
                    <path d="M281.093445,357.976585 C295.185244,357.976585 306.609008,346.550963 306.609008,332.456872 C306.609008,318.361881 295.185244,306.936259 281.093445,306.936259 C267.001647,306.936259 255.577883,318.361881 255.577883,332.456872 C255.577883,346.550963 267.001647,357.976585 281.093445,357.976585" id="Fill-191"></path>
                    <path d="M127.997551,357.976585 C142.089349,357.976585 153.513113,346.550963 153.513113,332.456872 C153.513113,318.361881 142.089349,306.936259 127.997551,306.936259 C113.905752,306.936259 102.481988,318.361881 102.481988,332.456872 C102.481988,346.550963 113.905752,357.976585 127.997551,357.976585" id="Fill-199"></path>
                    <path d="M332.12538,102.775317 C346.217179,102.775317 357.640943,91.3496956 357.640943,77.2556047 C357.640943,63.1606135 346.217179,51.7349918 332.12538,51.7349918 C318.033581,51.7349918 306.609818,63.1606135 306.609818,77.2556047 C306.609818,91.3496956 318.033581,102.775317 332.12538,102.775317" id="Fill-251"></path>
                    <path d="M76.9657056,255.896114 C91.0575044,255.896114 102.481268,244.470492 102.481268,230.376401 C102.481268,216.28141 91.0575044,204.855788 76.9657056,204.855788 C62.8739068,204.855788 51.4501432,216.28141 51.4501432,230.376401 C51.4501432,244.470492 62.8739068,255.896114 76.9657056,255.896114" id="Fill-259"></path>
                    <path d="M230.06151,255.896114 C244.153309,255.896114 255.577073,244.470492 255.577073,230.376401 C255.577073,216.28141 244.153309,204.855788 230.06151,204.855788 C215.969712,204.855788 204.545948,216.28141 204.545948,230.376401 C204.545948,244.470492 215.969712,255.896114 230.06151,255.896114" id="Fill-273"></path>
                    <path d="M332.12538,255.896114 C346.217179,255.896114 357.640943,244.470492 357.640943,230.376401 C357.640943,216.28141 346.217179,204.855788 332.12538,204.855788 C318.033581,204.855788 306.609818,216.28141 306.609818,230.376401 C306.609818,244.470492 318.033581,255.896114 332.12538,255.896114" id="Fill-275"></path>
                    <path d="M76.9657056,409.01682 C91.0575044,409.01682 102.481268,397.591199 102.481268,383.497108 C102.481268,369.402116 91.0575044,357.976495 76.9657056,357.976495 C62.8739068,357.976495 51.4501432,369.402116 51.4501432,383.497108 C51.4501432,397.591199 62.8739068,409.01682 76.9657056,409.01682" id="Fill-283"></path>
                    <path d="M26.4152592,409.01682 C40.507058,409.01682 51.9308216,397.591199 51.9308216,383.497108 C51.9308216,369.402116 40.507058,357.976495 26.4152592,357.976495 C12.3234604,357.976495 0.899696769,369.402116 0.899696769,383.497108 C0.899696769,397.591199 12.3234604,409.01682 26.4152592,409.01682" id="Fill-283-Copy"></path>
                    <path d="M281.093445,409.01682 C295.185244,409.01682 306.609008,397.591199 306.609008,383.497108 C306.609008,369.402116 295.185244,357.976495 281.093445,357.976495 C267.001647,357.976495 255.577883,369.402116 255.577883,383.497108 C255.577883,397.591199 267.001647,409.01682 281.093445,409.01682" id="Fill-287"></path>
                    <path d="M230.06151,409.01682 C244.153309,409.01682 255.577073,397.591199 255.577073,383.497108 C255.577073,369.402116 244.153309,357.976495 230.06151,357.976495 C215.969712,357.976495 204.545948,369.402116 204.545948,383.497108 C204.545948,397.591199 215.969712,409.01682 230.06151,409.01682" id="Fill-297"></path>
                </g>
            </g>
        </g>
    </g>
</svg>